Coordinates
version=1
nRows=52
nColumns=15
inDegrees=yes

Units are S.I. units (second, meters, Newtons, ...)
Angles are in degrees.

endheader
time	sacrum_pitch	sacrum_roll	sacrum_yaw	sacrum_x	sacrum_y	sacrum_z	sacroiliac_flx	hip_flx	hip_add	hip_int	knee_flx	ankle_flx	ankle_add	ankle_int
1.25500000	30.00000000	0.00000000	0.00000000	0.07302104	0.06707958	0.00000000	0.00000000	-13.06071021	0.00000000	0.00000000	-106.72638388	-15.11738220	0.00000000	0.00000000
1.26000000	30.00000000	0.00000000	0.00000000	0.07308492	0.06706645	0.00000000	0.00000000	-13.06029261	0.00000000	0.00000000	-106.53997720	-15.36982093	0.00000000	0.00000000
1.26500000	30.00000000	0.00000000	0.00000000	0.07318588	0.06704659	0.00000000	0.00000000	-12.96871226	0.00000000	0.00000000	-106.27677619	-16.10282176	0.00000000	0.00000000
1.27000000	30.00000000	0.00000000	0.00000000	0.07326620	0.06702036	0.00000000	0.00000000	-12.74968043	0.00000000	0.00000000	-106.06109371	-16.59478863	0.00000000	0.00000000
1.27500000	30.00000000	0.00000000	0.00000000	0.07335838	0.06701168	0.00000000	0.00000000	-12.63402732	0.00000000	0.00000000	-105.81444180	-17.14789248	0.00000000	0.00000000
1.28000000	30.00000000	0.00000000	0.00000000	0.07342522	0.06702188	0.00000000	0.00000000	-12.63844201	0.00000000	0.00000000	-105.55532167	-17.89241067	0.00000000	0.00000000
1.28500000	30.00000000	0.00000000	0.00000000	0.07346116	0.06703564	0.00000000	0.00000000	-12.71560151	0.00000000	0.00000000	-105.31548195	-18.58155453	0.00000000	0.00000000
1.29000000	30.00000000	0.00000000	0.00000000	0.07348414	0.06706750	0.00000000	0.00000000	-12.84498483	0.00000000	0.00000000	-105.10316808	-19.30917798	0.00000000	0.00000000
1.29500000	30.00000000	0.00000000	0.00000000	0.07347715	0.06709952	0.00000000	0.00000000	-12.96168474	0.00000000	0.00000000	-104.87473063	-20.15693605	0.00000000	0.00000000
1.30000000	30.00000000	0.00000000	0.00000000	0.07346156	0.06713121	0.00000000	0.00000000	-13.14795361	0.00000000	0.00000000	-104.63145667	-20.30753293	0.00000000	0.00000000
1.30500000	30.00000000	0.00000000	0.00000000	0.07342912	0.06717001	0.00000000	0.00000000	-13.31142699	0.00000000	0.00000000	-104.42865372	-20.96790288	0.00000000	0.00000000
1.31000000	30.00000000	0.00000000	0.00000000	0.07337728	0.06722104	0.00000000	0.00000000	-13.55322372	0.00000000	0.00000000	-104.26635599	-21.28324694	0.00000000	0.00000000
1.31500000	30.00000000	0.00000000	0.00000000	0.07330760	0.06728001	0.00000000	0.00000000	-13.78475474	0.00000000	0.00000000	-104.10981394	-21.24280878	0.00000000	0.00000000
1.32000000	30.00000000	0.00000000	0.00000000	0.07322927	0.06734226	0.00000000	0.00000000	-14.08158231	0.00000000	0.00000000	-103.90171534	-21.94748302	0.00000000	0.00000000
1.32500000	30.00000000	0.00000000	0.00000000	0.07314951	0.06740768	0.00000000	0.00000000	-14.09678147	0.00000000	0.00000000	-103.88036034	-22.26841700	0.00000000	0.00000000
1.33000000	30.00000000	0.00000000	0.00000000	0.07303701	0.06744608	0.00000000	0.00000000	-14.27038130	0.00000000	0.00000000	-103.85703371	-22.87696800	0.00000000	0.00000000
1.33500000	30.00000000	0.00000000	0.00000000	0.07293791	0.06749004	0.00000000	0.00000000	-14.46089924	0.00000000	0.00000000	-103.75924753	-23.83206953	0.00000000	0.00000000
1.34000000	30.00000000	0.00000000	0.00000000	0.07281151	0.06751720	0.00000000	0.00000000	-14.46560032	0.00000000	0.00000000	-103.67725592	-24.80127753	0.00000000	0.00000000
1.34500000	30.00000000	0.00000000	0.00000000	0.07271063	0.06753519	0.00000000	0.00000000	-14.52814021	0.00000000	0.00000000	-103.59589207	-25.97489221	0.00000000	0.00000000
1.35000000	30.00000000	0.00000000	0.00000000	0.07262327	0.06756613	0.00000000	0.00000000	-14.64658863	0.00000000	0.00000000	-103.56417128	-26.69065567	0.00000000	0.00000000
1.35500000	30.00000000	0.00000000	0.00000000	0.07253965	0.06760330	0.00000000	0.00000000	-14.78888224	0.00000000	0.00000000	-103.62111699	-26.87425991	0.00000000	0.00000000
1.36000000	30.00000000	0.00000000	0.00000000	0.07246059	0.06763390	0.00000000	0.00000000	-14.97793448	0.00000000	0.00000000	-103.69530937	-27.09407705	0.00000000	0.00000000
1.36500000	30.00000000	0.00000000	0.00000000	0.07241486	0.06766922	0.00000000	0.00000000	-15.09012014	0.00000000	0.00000000	-103.66353017	-27.96700239	0.00000000	0.00000000
1.37000000	30.00000000	0.00000000	0.00000000	0.07238238	0.06771036	0.00000000	0.00000000	-15.14923296	0.00000000	0.00000000	-103.50737530	-28.90773377	0.00000000	0.00000000
1.37500000	30.00000000	0.00000000	0.00000000	0.07236316	0.06774395	0.00000000	0.00000000	-15.09781842	0.00000000	0.00000000	-103.26050467	-29.60521107	0.00000000	0.00000000
1.38000000	30.00000000	0.00000000	0.00000000	0.07233697	0.06779392	0.00000000	0.00000000	-15.16028234	0.00000000	0.00000000	-102.98757909	-30.75723785	0.00000000	0.00000000
1.38500000	30.00000000	0.00000000	0.00000000	0.07231950	0.06785558	0.00000000	0.00000000	-15.16861185	0.00000000	0.00000000	-102.85716207	-31.14363682	0.00000000	0.00000000
1.39000000	30.00000000	0.00000000	0.00000000	0.07230054	0.06790698	0.00000000	0.00000000	-15.21733993	0.00000000	0.00000000	-102.89703653	-31.34583347	0.00000000	0.00000000
1.39500000	30.00000000	0.00000000	0.00000000	0.07229698	0.06796704	0.00000000	0.00000000	-15.21535831	0.00000000	0.00000000	-102.94713168	-31.85263732	0.00000000	0.00000000
1.40000000	30.00000000	0.00000000	0.00000000	0.07228677	0.06799066	0.00000000	0.00000000	-15.30264709	0.00000000	0.00000000	-102.98796453	-32.03894223	0.00000000	0.00000000
1.40500000	30.00000000	0.00000000	0.00000000	0.07228593	0.06800214	0.00000000	0.00000000	-15.31119261	0.00000000	0.00000000	-102.98207693	-32.60506618	0.00000000	0.00000000
1.41000000	30.00000000	0.00000000	0.00000000	0.07228091	0.06801044	0.00000000	0.00000000	-15.45520364	0.00000000	0.00000000	-102.80876062	-32.91323467	0.00000000	0.00000000
1.41500000	30.00000000	0.00000000	0.00000000	0.07226562	0.06801075	0.00000000	0.00000000	-15.48947090	0.00000000	0.00000000	-102.55182463	-33.66620483	0.00000000	0.00000000
1.42000000	30.00000000	0.00000000	0.00000000	0.07223953	0.06802760	0.00000000	0.00000000	-15.69347745	0.00000000	0.00000000	-102.13393607	-34.28306427	0.00000000	0.00000000
1.42500000	30.00000000	0.00000000	0.00000000	0.07222432	0.06804106	0.00000000	0.00000000	-15.85945209	0.00000000	0.00000000	-101.80621014	-35.06171519	0.00000000	0.00000000
1.43000000	30.00000000	0.00000000	0.00000000	0.07220174	0.06805328	0.00000000	0.00000000	-15.90947846	0.00000000	0.00000000	-101.63856809	-35.64641659	0.00000000	0.00000000
1.43500000	30.00000000	0.00000000	0.00000000	0.07218955	0.06805569	0.00000000	0.00000000	-15.84027088	0.00000000	0.00000000	-101.56474175	-36.24354006	0.00000000	0.00000000
1.44000000	30.00000000	0.00000000	0.00000000	0.07217760	0.06806330	0.00000000	0.00000000	-15.84025377	0.00000000	0.00000000	-101.51617308	-36.82476889	0.00000000	0.00000000
1.44500000	30.00000000	0.00000000	0.00000000	0.07217675	0.06808645	0.00000000	0.00000000	-15.76798705	0.00000000	0.00000000	-101.51569134	-37.25835955	0.00000000	0.00000000
1.45000000	30.00000000	0.00000000	0.00000000	0.07217986	0.06811729	0.00000000	0.00000000	-15.77997539	0.00000000	0.00000000	-101.39973265	-37.91203278	0.00000000	0.00000000
1.45500000	30.00000000	0.00000000	0.00000000	0.07217809	0.06812615	0.00000000	0.00000000	-15.90661334	0.00000000	0.00000000	-101.17991017	-38.53262903	0.00000000	0.00000000
1.46000000	30.00000000	0.00000000	0.00000000	0.07218391	0.06814909	0.00000000	0.00000000	-15.90061896	0.00000000	0.00000000	-101.09698150	-38.86211505	0.00000000	0.00000000
1.46500000	30.00000000	0.00000000	0.00000000	0.07217168	0.06816780	0.00000000	0.00000000	-15.94120992	0.00000000	0.00000000	-101.08466267	-39.14796437	0.00000000	0.00000000
1.47000000	30.00000000	0.00000000	0.00000000	0.07213215	0.06818585	0.00000000	0.00000000	-15.97180179	0.00000000	0.00000000	-101.21460585	-39.09690269	0.00000000	0.00000000
1.47500000	30.00000000	0.00000000	0.00000000	0.07208187	0.06822205	0.00000000	0.00000000	-15.94225495	0.00000000	0.00000000	-101.53692089	-38.62505042	0.00000000	0.00000000
1.48000000	30.00000000	0.00000000	0.00000000	0.07203240	0.06823359	0.00000000	0.00000000	-15.82181237	0.00000000	0.00000000	-101.96571259	-38.24675700	0.00000000	0.00000000
1.48500000	30.00000000	0.00000000	0.00000000	0.07197279	0.06821181	0.00000000	0.00000000	-15.53118151	0.00000000	0.00000000	-102.73868443	-37.35957599	0.00000000	0.00000000
1.49000000	30.00000000	0.00000000	0.00000000	0.07191948	0.06821407	0.00000000	0.00000000	-15.20860063	0.00000000	0.00000000	-103.52933167	-36.70712144	0.00000000	0.00000000
1.49500000	30.00000000	0.00000000	0.00000000	0.07187193	0.06825198	0.00000000	0.00000000	-14.87376480	0.00000000	0.00000000	-104.10980304	-36.54225531	0.00000000	0.00000000
1.50000000	30.00000000	0.00000000	0.00000000	0.07182677	0.06831525	0.00000000	0.00000000	-14.48112433	0.00000000	0.00000000	-104.49876814	-36.64915627	0.00000000	0.00000000
1.50500000	30.00000000	0.00000000	0.00000000	0.07179697	0.06838950	0.00000000	0.00000000	-14.06235174	0.00000000	0.00000000	-104.72472652	-37.16650564	0.00000000	0.00000000
1.51000000	30.00000000	0.00000000	0.00000000	0.07176576	0.06846007	0.00000000	0.00000000	-13.79720803	0.00000000	0.00000000	-104.97851605	-37.52318976	0.00000000	0.00000000
